<svg width="307" height="26" viewBox="0 0 307 26" fill="none" xmlns="http://www.w3.org/2000/svg">
<path d="M54.0244 0.999725L54.0395 25.042L0.0146068 25.076L-0.00052599 1.03373L54.0244 0.999725Z" fill="white"/>
<g clip-path="url(#clip0_287_176)">
<path d="M78.2266 25H72.4258L64.9111 13.8379V25H60.165L60.1504 1.38672H67.8555C72.2646 1.38672 75.8828 4.78516 75.8828 9.0332C75.8828 12.0654 74.0518 14.7168 71.5176 15.6104L78.2266 25ZM64.8965 6.08887V12.0215L67.9434 12.0361C69.5547 12.0508 70.9902 10.7471 70.9902 9.0625C70.9902 7.37793 69.54 6.08887 67.9434 6.08887H64.8965ZM94.7207 6.05957H85.2285V10.6738H93.373V15.4053H85.2285V20.2832H94.7207V25H80.4824V1.38672H94.7207V6.05957ZM113.148 1.38672V6.08887H107.348V25H102.587V6.08887H96.7715V1.38672H113.148ZM130.756 1.38672V6.08887H124.955V25H120.194V6.08887H114.379V1.38672H130.756ZM142.328 25.5127C137.304 25.5127 133.217 21.6162 133.217 16.2695V1.38672H137.992V16.2549C137.992 18.833 140.028 20.708 142.313 20.708C144.599 20.708 146.664 18.8184 146.664 16.2549V1.38672H151.439V16.2695C151.439 21.6162 147.353 25.5127 142.328 25.5127ZM169.56 1.32812H174.32V25.4395H174.101L160.082 11.8018V25.0293H155.336V0.947266H155.57L169.56 14.5557V1.32812ZM200.98 11.7432C201.054 12.4316 201.098 13.0908 201.098 13.7354C201.098 21.1475 195.985 25.4688 189.833 25.4688C182.875 25.4688 177.396 19.9609 177.396 13.2227C177.396 6.46973 182.904 0.90332 189.657 0.90332C192.719 0.932617 195.985 2.33887 198.3 4.59473L195.663 8.53516C193.817 6.7334 191.708 5.70801 189.599 5.70801C185.937 5.70801 182.23 8.81348 182.23 13.2227C182.23 17.3242 185.424 20.6934 190.038 20.6934C193.407 20.6934 195.824 18.9648 195.985 16.123H189.877V11.7432H200.98ZM211.249 25.4688C207.382 25.4688 204.525 23.8574 202.943 20.9277L206.737 18.2617C207.777 19.9316 209.286 20.6934 211.322 20.6934C213.549 20.6934 215.043 19.7852 215.043 18.5254C215.043 16.7969 212.216 15.4346 209.74 14.2041C207.089 12.8857 204.174 11.4355 204.174 7.6709C204.174 3.58398 207.631 0.888672 211.967 0.888672C215.189 0.888672 217.855 2.22168 218.925 5.07812L215.424 7.52441C214.721 6.11816 213.358 5.54688 212.04 5.54688C210.268 5.54688 208.949 6.57227 208.949 7.78809C208.949 9.19434 210.736 9.67773 213.446 10.9521C217.357 12.7979 219.818 14.79 219.818 18.4229C219.818 22.7295 216.303 25.4688 211.249 25.4688ZM236.913 1.32812H241.674V25.4395H241.454L227.436 11.8018V25.0293H222.689V0.947266H222.924L236.913 14.5557V1.32812ZM261.61 25L260.116 21.7041H250.668L249.159 25H244.032L255.312 0.800781H255.458L266.752 25H261.61ZM252.514 17.6611H258.271L255.399 11.3477L252.514 17.6611ZM282.338 1.38672H287.069V25H282.338V15.5371H273.856V25H269.125V1.38672H273.856V10.835H282.338V1.38672ZM306.127 1.38672V6.08887H300.326V25H295.565V6.08887H289.75V1.38672H306.127Z" fill="white"/>
</g>
<defs>
<clipPath id="clip0_287_176">
<rect width="247" height="26" fill="white" transform="translate(60)"/>
</clipPath>
</defs>
</svg>
